<?xml version="1.0" encoding="iso-8859-1"?>
<!-- Generator: Adobe Illustrator 16.0.0, SVG Export Plug-In . SVG Version: 6.00 Build 0)  -->
<!DOCTYPE svg PUBLIC "-//W3C//DTD SVG 1.1//EN" "http://www.w3.org/Graphics/SVG/1.1/DTD/svg11.dtd">
<svg version="1.1" id="Calque_1" xmlns="http://www.w3.org/2000/svg" xmlns:xlink="http://www.w3.org/1999/xlink" x="0px" y="0px"
	 width="24.999px" height="25px" viewBox="0 0 24.999 25" style="enable-background:new 0 0 24.999 25;" xml:space="preserve">
<g>
	<path d="M22.222,2.778h-1.25v2.777h-4.444V2.778H8.472v2.777H4.027V2.778H2.778C1.25,2.778,0,4.028,0,5.556v16.667
		C0,23.75,1.25,25,2.778,25h19.443c1.527,0,2.777-1.25,2.777-2.777V5.556C24.999,4.028,23.749,2.778,22.222,2.778z M22.222,22.223
		H2.778V11.111h19.443V22.223z M7.222,0H5.277v4.723h1.944V0z M19.722,0h-1.944v4.723h1.944V0z"/>
</g>
</svg>
