<?xml version="1.0" encoding="iso-8859-1"?>
<!-- Generator: Adobe Illustrator 16.0.0, SVG Export Plug-In . SVG Version: 6.00 Build 0)  -->
<!DOCTYPE svg PUBLIC "-//W3C//DTD SVG 1.1//EN" "http://www.w3.org/Graphics/SVG/1.1/DTD/svg11.dtd">
<svg version="1.1" id="Calque_1" xmlns="http://www.w3.org/2000/svg" xmlns:xlink="http://www.w3.org/1999/xlink" x="0px" y="0px"
	 width="43.268px" height="40.502px" viewBox="0 0 43.268 40.502" style="enable-background:new 0 0 43.268 40.502;"
	 xml:space="preserve">
<path d="M42.346,0H0.922C0.413,0,0,0.41,0,0.92v5.523c0,0.509,0.413,0.92,0.922,0.92h41.424c0.51,0,0.922-0.411,0.922-0.92V0.92
	C43.268,0.41,42.855,0,42.346,0 M42.346,16.568H0.922C0.413,16.568,0,16.98,0,17.488v5.524c0,0.51,0.413,0.92,0.922,0.92h41.424
	c0.51,0,0.922-0.41,0.922-0.92v-5.524C43.268,16.98,42.855,16.568,42.346,16.568 M42.346,33.139H0.922
	c-0.509,0-0.922,0.41-0.922,0.92v5.523c0,0.508,0.413,0.92,0.922,0.92h41.424c0.51,0,0.922-0.412,0.922-0.92v-5.523
	C43.268,33.549,42.855,33.139,42.346,33.139"/>
</svg>
