<?xml version="1.0" encoding="iso-8859-1"?>
<!-- Generator: Adobe Illustrator 16.0.0, SVG Export Plug-In . SVG Version: 6.00 Build 0)  -->
<!DOCTYPE svg PUBLIC "-//W3C//DTD SVG 1.1//EN" "http://www.w3.org/Graphics/SVG/1.1/DTD/svg11.dtd">
<svg version="1.1" id="Calque_1" xmlns="http://www.w3.org/2000/svg" xmlns:xlink="http://www.w3.org/1999/xlink" x="0px" y="0px"
	 width="49px" height="49px" viewBox="0 0 49 49" style="enable-background:new 0 0 49 49;" xml:space="preserve">
<g>
	<path style="fill:#E36563;" d="M44.288,24.5c0-3.055,1.88-5.467,4.712-7.125c-0.509-1.705-1.186-3.338-2.018-4.877
		c-3.176,0.832-5.746-0.414-7.906-2.574s-2.822-4.73-1.991-7.906C35.547,1.186,33.914,0.51,32.208,0
		C30.55,2.832,27.556,4.713,24.5,4.713c-3.055,0-6.049-1.881-7.707-4.713c-1.706,0.508-3.338,1.186-4.877,2.018
		c0.831,3.176,0.17,5.746-1.99,7.906C7.765,12.086,5.193,13.33,2.018,12.5C1.187,14.037,0.511,15.67,0,17.375
		c2.832,1.658,4.713,4.07,4.713,7.125S2.832,30.549,0,32.207c0.511,1.705,1.187,3.338,2.018,4.877
		c3.177-0.832,5.747-0.17,7.908,1.99c2.16,2.162,2.821,4.732,1.99,7.908c1.539,0.83,3.171,1.508,4.878,2.018
		c1.657-2.832,4.651-4.713,7.706-4.713c3.056,0,6.05,1.881,7.708,4.713c1.706-0.51,3.339-1.188,4.877-2.02
		c-0.83-3.174-0.169-5.744,1.991-7.906c2.16-2.16,4.73-3.404,7.906-2.574c0.832-1.537,1.509-3.17,2.018-4.877
		C46.168,29.967,44.288,27.555,44.288,24.5z M24.5,35.154c-5.884,0-10.653-4.771-10.653-10.654c0-5.885,4.77-10.656,10.653-10.656
		c5.885,0,10.655,4.771,10.655,10.656C35.155,30.383,30.385,35.154,24.5,35.154z"/>
</g>
</svg>
