<?xml version="1.0" encoding="iso-8859-1"?>
<!-- Generator: Adobe Illustrator 16.0.0, SVG Export Plug-In . SVG Version: 6.00 Build 0)  -->
<!DOCTYPE svg PUBLIC "-//W3C//DTD SVG 1.1//EN" "http://www.w3.org/Graphics/SVG/1.1/DTD/svg11.dtd">
<svg version="1.1" id="Calque_1" xmlns="http://www.w3.org/2000/svg" xmlns:xlink="http://www.w3.org/1999/xlink" x="0px" y="0px"
	 width="19.926px" height="18.982px" viewBox="0 0 19.926 18.982" style="enable-background:new 0 0 19.926 18.982;"
	 xml:space="preserve">
<g>
	<path d="M14.535,0c0.286,0,0.586,0.016,0.906,0.049c1.953,0.195,4.209,1.979,4.484,5.4V6.59c-0.254,3.281-2.73,7.326-9.961,12.393
		C2.73,13.916,0.257,9.871,0,6.59V5.449c0.275-3.422,2.533-5.205,4.484-5.4C4.806,0.016,5.104,0,5.387,0
		c2.258,0,3.34,0.977,4.578,2.453C11.197,0.977,12.283,0,14.535,0 M14.535,2.182c-1.291,0-1.834,0.395-2.898,1.672l-1.672,1.99
		l-1.672-1.99C7.225,2.576,6.684,2.182,5.387,2.182c-0.211,0-0.443,0.01-0.691,0.035C3.793,2.309,2.394,3.266,2.184,5.543v0.959
		c0.262,2.859,2.878,6.156,7.781,9.799c4.898-3.643,7.52-6.941,7.782-9.799V5.543c-0.212-2.277-1.618-3.234-2.515-3.326
		C14.981,2.191,14.75,2.182,14.535,2.182L14.535,2.182z"/>
</g>
</svg>
