<?xml version="1.0" encoding="iso-8859-1"?>
<!-- Generator: Adobe Illustrator 16.0.0, SVG Export Plug-In . SVG Version: 6.00 Build 0)  -->
<!DOCTYPE svg PUBLIC "-//W3C//DTD SVG 1.1//EN" "http://www.w3.org/Graphics/SVG/1.1/DTD/svg11.dtd">
<svg version="1.1" id="Calque_1" xmlns="http://www.w3.org/2000/svg" xmlns:xlink="http://www.w3.org/1999/xlink" x="0px" y="0px"
	 width="23.334px" height="18.666px" viewBox="0 0 23.334 18.666" style="enable-background:new 0 0 23.334 18.666;"
	 xml:space="preserve">
<g>
	<g>
		<path d="M21,0H2.334C1.051,0,0,1.05,0,2.333v14c0,1.283,1.051,2.333,2.334,2.333H21c1.283,0,2.334-1.05,2.334-2.333v-14
			C23.334,1.05,22.283,0,21,0z M21,16.333H2.334v-14H21V16.333z M10.5,11.783H4.666v2.1H10.5V11.783z M10.5,8.283H4.666v2.1H10.5
			V8.283z M10.5,4.783H4.666v2.1H10.5V4.783z M18.55,12.25c0,0-1.983-0.52-1.983-1.537c0-0.971,1.283-1.38,1.283-3.363
			c0-1.611-0.489-2.567-2.1-2.567c-1.611,0-2.1,0.956-2.1,2.567c0,1.983,1.283,2.392,1.283,3.363c0,1.018-1.984,1.537-1.984,1.537
			c-0.115,0-0.115,1.633-0.115,1.633h5.832C18.666,13.883,18.666,12.25,18.55,12.25z"/>
	</g>
</g>
</svg>
