<?xml version="1.0" encoding="iso-8859-1"?>
<!-- Generator: Adobe Illustrator 16.0.0, SVG Export Plug-In . SVG Version: 6.00 Build 0)  -->
<!DOCTYPE svg PUBLIC "-//W3C//DTD SVG 1.1//EN" "http://www.w3.org/Graphics/SVG/1.1/DTD/svg11.dtd">
<svg version="1.1" id="Calque_1" xmlns="http://www.w3.org/2000/svg" xmlns:xlink="http://www.w3.org/1999/xlink" x="0px" y="0px"
	 width="70.554px" height="48.512px" viewBox="0 0 70.554 48.512" style="enable-background:new 0 0 70.554 48.512;"
	 xml:space="preserve">
<g>
	<path style="fill-rule:evenodd;clip-rule:evenodd;" d="M34.255,48.512c-4.843,0.002-9.685-0.082-14.518-0.417
		c-2.532-0.176-5.064-0.38-7.552-0.923c-0.626-0.137-1.238-0.352-1.843-0.568c-0.462-0.165-0.716-0.487-0.798-1.019
		c-0.305-1.987-0.438-3.971,0.002-5.952c0.725-3.264,2.715-5.458,5.808-6.62c1.375-0.517,2.818-0.851,4.234-1.257
		c2.359-0.677,4.746-1.269,7.025-2.201c0.855-0.35,1.681-0.757,2.399-1.351c0.564-0.467,0.997-1.029,1.208-1.737
		c0.03-0.102,0.006-0.275-0.063-0.342c-2.09-2-3.521-4.428-4.585-7.087c-0.913-2.278-1.479-4.636-1.519-7.105
		c-0.091-5.645,3.751-10.533,9.229-11.697c3.214-0.684,6.089,0.143,8.582,2.203c3.422,2.828,4.895,6.557,4.469,10.929
		c-0.479,4.917-2.619,9.097-6.154,12.552c-0.494,0.482-0.508,0.473-0.189,1.09c0.473,0.915,1.266,1.487,2.141,1.959
		c1.469,0.793,3.053,1.29,4.646,1.75c2.318,0.67,4.656,1.28,6.971,1.968c2.355,0.7,4.381,1.929,5.83,3.968
		c1.559,2.191,2.063,4.671,1.879,7.312c-0.039,0.569-0.176,1.131-0.262,1.696c-0.061,0.398-0.301,0.659-0.662,0.774
		c-0.711,0.225-1.422,0.463-2.15,0.61c-2.352,0.477-4.738,0.685-7.127,0.867C45.598,48.345,39.928,48.49,34.255,48.512z"/>
	<path style="fill-rule:evenodd;clip-rule:evenodd;" d="M25.264,28.867c-0.818,0.262-1.571,0.525-2.336,0.743
		c-2.263,0.646-4.535,1.256-6.794,1.913c-2.164,0.63-4.082,1.685-5.561,3.432c-1.439,1.702-2.132,3.707-2.341,5.897
		c-0.062,0.648-0.071,1.302-0.107,1.991c-0.421-0.029-0.837-0.051-1.252-0.087c-1.713-0.147-3.427-0.295-5.1-0.719
		c-0.402-0.103-0.803-0.253-1.167-0.449c-0.166-0.09-0.313-0.331-0.35-0.525c-0.287-1.52-0.38-3.047-0.036-4.572
		c0.622-2.765,2.424-4.405,5.057-5.202c1.948-0.59,3.924-1.087,5.868-1.687c0.964-0.298,1.9-0.697,2.818-1.119
		c0.726-0.334,1.321-0.854,1.657-1.618c0.039-0.087,0.171-0.134,0.277-0.214c0.004,0.006-0.008-0.033-0.033-0.057
		c-2.055-1.892-3.317-4.263-4.138-6.893c-0.5-1.604-0.748-3.244-0.613-4.935c0.336-4.226,3.914-7.714,8.143-7.913
		c1.454-0.068,2.794,0.326,4.041,1.055c0.083,0.049,0.171,0.219,0.146,0.299c-0.945,3.117-0.525,6.179,0.375,9.218
		c0.496,1.674,1.174,3.273,2.022,4.799c0.103,0.185,0.098,0.32-0.006,0.503c-0.777,1.371-1.692,2.635-2.887,3.676
		c-0.14,0.122-0.127,0.23-0.071,0.376c0.269,0.706,0.794,1.18,1.419,1.558C24.591,28.515,24.9,28.669,25.264,28.867z"/>
	<path style="fill-rule:evenodd;clip-rule:evenodd;" d="M45.326,28.85c0.342-0.186,0.645-0.335,0.932-0.508
		c0.605-0.366,1.119-0.823,1.402-1.497c0.088-0.207,0.07-0.339-0.111-0.499c-1.188-1.048-2.102-2.314-2.854-3.701
		c-0.055-0.103-0.027-0.296,0.033-0.408c0.959-1.771,1.719-3.623,2.23-5.572c0.551-2.092,0.879-4.211,0.586-6.38
		c-0.09-0.656-0.246-1.307-0.41-1.949c-0.063-0.244-0.029-0.357,0.193-0.48c2.32-1.285,4.707-1.377,7.068-0.219
		c3.383,1.656,5.16,4.44,5.059,8.199c-0.107,4.109-1.689,7.67-4.602,10.608c-0.07,0.071-0.16,0.123-0.201,0.154
		c0.137,0.146,0.268,0.234,0.328,0.356c0.301,0.613,0.783,1.043,1.352,1.388c0.963,0.584,2.018,0.954,3.086,1.27
		c1.943,0.573,3.9,1.097,5.844,1.67c1.654,0.488,3.074,1.343,4.063,2.802c0.988,1.458,1.285,3.104,1.221,4.827
		c-0.025,0.673-0.148,1.342-0.199,2.015c-0.031,0.415-0.242,0.678-0.609,0.796c-0.613,0.194-1.227,0.428-1.857,0.513
		c-1.754,0.236-3.516,0.405-5.275,0.599c-0.049,0.006-0.1-0.003-0.17-0.007c-0.025-0.575-0.035-1.146-0.08-1.713
		c-0.164-2.104-0.762-4.059-2.049-5.762c-1.35-1.785-3.152-2.946-5.254-3.617c-1.82-0.583-3.682-1.039-5.52-1.573
		c-1.324-0.386-2.641-0.808-3.959-1.215C45.504,28.925,45.439,28.895,45.326,28.85z"/>
</g>
</svg>
