<?xml version="1.0" encoding="iso-8859-1"?>
<!-- Generator: Adobe Illustrator 16.0.0, SVG Export Plug-In . SVG Version: 6.00 Build 0)  -->
<!DOCTYPE svg PUBLIC "-//W3C//DTD SVG 1.1//EN" "http://www.w3.org/Graphics/SVG/1.1/DTD/svg11.dtd">
<svg version="1.1" id="Calque_1" xmlns="http://www.w3.org/2000/svg" xmlns:xlink="http://www.w3.org/1999/xlink" x="0px" y="0px"
	 width="15px" height="15.001px" viewBox="0 0 15 15.001" style="enable-background:new 0 0 15 15.001;" xml:space="preserve">
<g>
	<g>
		<path d="M7.499,0C3.357,0,0,3.359,0,7.501s3.357,7.5,7.499,7.5c4.144,0,7.501-3.358,7.501-7.5S11.643,0,7.499,0z M7.499,13.371
			c-3.239,0-5.87-2.629-5.87-5.87S4.26,1.63,7.499,1.63c3.241,0,5.872,2.63,5.872,5.871S10.74,13.371,7.499,13.371z"/>
		<polygon points="8.07,3.263 6.928,3.263 6.928,7.738 9.705,10.514 10.513,9.706 8.07,7.264 		"/>
	</g>
</g>
</svg>
