<?xml version="1.0" encoding="iso-8859-1"?>
<!-- Generator: Adobe Illustrator 16.0.0, SVG Export Plug-In . SVG Version: 6.00 Build 0)  -->
<!DOCTYPE svg PUBLIC "-//W3C//DTD SVG 1.1//EN" "http://www.w3.org/Graphics/SVG/1.1/DTD/svg11.dtd">
<svg version="1.1" id="Calque_1" xmlns="http://www.w3.org/2000/svg" xmlns:xlink="http://www.w3.org/1999/xlink" x="0px" y="0px"
	 width="21.094px" height="13.594px" viewBox="0 0 21.094 13.594" style="enable-background:new 0 0 21.094 13.594;"
	 xml:space="preserve">
<g>
	<path style="fill:#010202;" d="M0.697,1.271C1.269,1.58,9.189,5.834,9.484,5.992c0.296,0.16,0.678,0.236,1.063,0.236
		s0.767-0.076,1.062-0.236c0.295-0.158,8.217-4.412,8.789-4.721C20.97,0.965,21.512,0,20.46,0H0.633
		C-0.417,0,0.123,0.965,0.697,1.271z M20.64,3.615c-0.65,0.34-8.633,4.514-9.031,4.721c-0.397,0.209-0.677,0.236-1.062,0.236
		S9.883,8.545,9.484,8.336c-0.398-0.207-8.381-4.381-9.03-4.721C-0.004,3.377,0,3.656,0,3.873c0,0.215,0,8.596,0,8.596
		c0,0.492,0.653,1.125,1.162,1.125h18.769c0.509,0,1.163-0.633,1.163-1.125c0,0,0-8.381,0-8.596
		C21.094,3.656,21.098,3.377,20.64,3.615z"/>
</g>
</svg>
