<?xml version="1.0" encoding="iso-8859-1"?>
<!-- Generator: Adobe Illustrator 16.0.0, SVG Export Plug-In . SVG Version: 6.00 Build 0)  -->
<!DOCTYPE svg PUBLIC "-//W3C//DTD SVG 1.1//EN" "http://www.w3.org/Graphics/SVG/1.1/DTD/svg11.dtd">
<svg version="1.1" id="Calque_1" xmlns="http://www.w3.org/2000/svg" xmlns:xlink="http://www.w3.org/1999/xlink" x="0px" y="0px"
	 width="45.446px" height="45.446px" viewBox="0 0 45.446 45.446" style="enable-background:new 0 0 45.446 45.446;"
	 xml:space="preserve">
<g>
	<path d="M17.17,28.455l-10.102-4.04v3.418l10.102,4.041V28.455z M17.17,17.968L7.068,13.927v3.419l10.102,4.04V17.968z
		 M44.337,0.435c-0.693-0.47-1.575-0.565-2.354-0.254L22.723,7.886L3.462,0.181C2.684-0.131,1.803-0.035,1.108,0.435
		C0.415,0.903,0,1.687,0,2.524v32.318c0,1.032,0.628,1.96,1.586,2.344l20.156,8.062c0,0,0.413,0.134,0.49,0.149
		c0.162,0.031,0.326,0.049,0.49,0.049s0.328-0.018,0.49-0.049c0.077-0.016,0.492-0.15,0.492-0.15l20.154-8.061
		c0.959-0.384,1.587-1.312,1.587-2.344V2.524C45.446,1.687,45.03,0.903,44.337,0.435z M20.198,40.28L4.039,33.817V5.52l16.159,6.464
		V40.28z M41.406,33.817L25.248,40.28V11.983L41.406,5.52V33.817z M38.378,24.415l-10.102,4.04v3.419l10.102-4.041V24.415z
		 M38.378,13.927l-10.102,4.041v3.418l10.102-4.04V13.927z"/>
</g>
</svg>
