<?xml version="1.0" encoding="iso-8859-1"?>
<!-- Generator: Adobe Illustrator 16.0.0, SVG Export Plug-In . SVG Version: 6.00 Build 0)  -->
<!DOCTYPE svg PUBLIC "-//W3C//DTD SVG 1.1//EN" "http://www.w3.org/Graphics/SVG/1.1/DTD/svg11.dtd">
<svg version="1.1" id="Calque_1" xmlns="http://www.w3.org/2000/svg" xmlns:xlink="http://www.w3.org/1999/xlink" x="0px" y="0px"
	 width="17.456px" height="21.197px" viewBox="0 0 17.456 21.197" style="enable-background:new 0 0 17.456 21.197;"
	 xml:space="preserve">
<g>
	<path style="fill:#010202;" d="M15.96,7.482h-2.245V5.736C13.715,2.123,12.051,0,8.728,0S3.74,2.123,3.74,5.736v1.746H1.246
		C0.558,7.482,0,8.289,0,8.979v9.724c0,0.688,0.533,1.42,1.187,1.631l1.491,0.48c0.653,0.211,1.748,0.383,2.434,0.383h7.232
		c0.686,0,1.781-0.172,2.434-0.383l1.492-0.48c0.652-0.211,1.187-0.943,1.187-1.631V8.979C17.456,8.289,16.648,7.482,15.96,7.482z
		 M6.234,5.238c0-1.803,0.994-2.744,2.493-2.744c1.5,0,2.494,0.941,2.494,2.744v2.244H6.234V5.238z"/>
</g>
</svg>
