<?xml version="1.0" encoding="iso-8859-1"?>
<!-- Generator: Adobe Illustrator 16.0.0, SVG Export Plug-In . SVG Version: 6.00 Build 0)  -->
<!DOCTYPE svg PUBLIC "-//W3C//DTD SVG 1.1//EN" "http://www.w3.org/Graphics/SVG/1.1/DTD/svg11.dtd">
<svg version="1.1" id="Calque_1" xmlns="http://www.w3.org/2000/svg" xmlns:xlink="http://www.w3.org/1999/xlink" x="0px" y="0px"
	 width="38.233px" height="38.216px" viewBox="0 0 38.233 38.216" style="enable-background:new 0 0 38.233 38.216;"
	 xml:space="preserve">
<g>
	<path style="fill-rule:evenodd;clip-rule:evenodd;fill:#010202;" d="M5.418,27.378c7.856-7.858,15.724-15.725,23.573-23.574
		c1.803,1.801,3.615,3.611,5.414,5.408c-7.847,7.848-15.717,15.717-23.572,23.574C9.035,30.991,7.224,29.181,5.418,27.378z"/>
	<path style="fill-rule:evenodd;clip-rule:evenodd;fill:#010202;" d="M38.233,5.418c-1.181,1.179-2.381,2.378-3.566,3.562
		c-1.805-1.805-3.613-3.617-5.412-5.419C30.431,2.387,31.634,1.185,32.818,0C34.608,1.79,36.418,3.602,38.233,5.418z"/>
	<path style="fill-rule:evenodd;clip-rule:evenodd;fill:#010202;" d="M10.608,33.04c-2.684,1.346-5.386,2.699-8.1,4.061
		c-0.012-0.035-0.021-0.065-0.034-0.111c-0.817,0.41-1.632,0.818-2.444,1.227C0.021,38.208,0.011,38.2,0,38.192
		c0.408-0.816,0.815-1.633,1.231-2.465c-0.043-0.004-0.074-0.006-0.119-0.011c1.361-2.716,2.717-5.421,4.063-8.106
		C6.984,29.419,8.792,31.224,10.608,33.04z M4.072,30.067c-0.931,1.856-1.862,3.709-2.79,5.561C1.29,35.636,1.3,35.644,1.31,35.651
		c0.212-0.104,0.424-0.208,0.635-0.313c0.009,0.009,0.018,0.017,0.025,0.025c-0.134,0.27-0.269,0.539-0.403,0.808
		c0.01,0.007,0.02,0.013,0.028,0.02c0.268-0.134,0.536-0.268,0.804-0.4c0.009,0.009,0.018,0.018,0.026,0.026
		c-0.135,0.269-0.268,0.537-0.402,0.807c0.01,0.008,0.02,0.015,0.029,0.022c0.264-0.132,0.529-0.265,0.795-0.397
		c0.009,0.012,0.019,0.022,0.026,0.034C2.77,36.491,2.666,36.7,2.562,36.91c0.011,0.007,0.021,0.013,0.033,0.019
		c1.853-0.928,3.707-1.857,5.554-2.784C6.787,32.781,5.438,31.432,4.072,30.067z"/>
</g>
</svg>
