<?xml version="1.0" encoding="iso-8859-1"?>
<!-- Generator: Adobe Illustrator 16.0.0, SVG Export Plug-In . SVG Version: 6.00 Build 0)  -->
<!DOCTYPE svg PUBLIC "-//W3C//DTD SVG 1.1//EN" "http://www.w3.org/Graphics/SVG/1.1/DTD/svg11.dtd">
<svg version="1.1" id="Calque_1" xmlns="http://www.w3.org/2000/svg" xmlns:xlink="http://www.w3.org/1999/xlink" x="0px" y="0px"
	 width="15px" height="14.363px" viewBox="0 0 15 14.363" style="enable-background:new 0 0 15 14.363;" xml:space="preserve">
<g>
	<g>
		<path d="M11.745,10.73c-1.967-0.717-2.596-1.322-2.596-2.616c0-0.777,0.601-0.523,0.865-1.946c0.109-0.591,0.639-0.01,0.74-1.358
			c0-0.537-0.289-0.671-0.289-0.671s0.146-0.795,0.205-1.407C10.742,1.97,10.229,0,7.499,0c-2.729,0-3.241,1.97-3.17,2.731
			c0.059,0.612,0.205,1.407,0.205,1.407S4.245,4.272,4.245,4.81c0.102,1.349,0.631,0.768,0.74,1.358
			C5.25,7.591,5.851,7.337,5.851,8.114c0,1.294-0.629,1.899-2.596,2.616C1.282,11.45,0,12.183,0,12.683s0,1.681,0,1.681h7.499H15
			c0,0,0-1.181,0-1.681S13.718,11.45,11.745,10.73z"/>
	</g>
</g>
</svg>
