<?xml version="1.0" encoding="iso-8859-1"?>
<!-- Generator: Adobe Illustrator 16.0.0, SVG Export Plug-In . SVG Version: 6.00 Build 0)  -->
<!DOCTYPE svg PUBLIC "-//W3C//DTD SVG 1.1//EN" "http://www.w3.org/Graphics/SVG/1.1/DTD/svg11.dtd">
<svg version="1.1" id="Calque_1" xmlns="http://www.w3.org/2000/svg" xmlns:xlink="http://www.w3.org/1999/xlink" x="0px" y="0px"
	 width="31px" height="35.124px" viewBox="0 0 31 35.124" style="enable-background:new 0 0 31 35.124;" xml:space="preserve">
<g>
	<path d="M22.46,33.562c0-1.152,0-2.658,0-3.237c0-1.471-2.894-2.858-6.308-4.282c-3.393-1.421-4.48-2.621-4.48-5.188
		c0-1.54,1.035-1.036,1.491-3.858c0.19-1.167,1.108-0.017,1.281-2.69c0-1.063-0.503-1.328-0.503-1.328s0.258-1.576,0.359-2.789
		c0.123-1.51-0.762-5.414-5.479-5.414s-5.604,3.904-5.48,5.414c0.1,1.213,0.353,2.789,0.353,2.789s-0.5,0.265-0.5,1.328
		c0.177,2.674,1.093,1.523,1.28,2.69c0.454,2.822,1.494,2.318,1.494,3.858c0,2.485-1.037,3.69-4.19,5.055
		c2.114,4.911,6.737,8.48,12.253,9.108h3.479C19.272,34.817,20.935,34.31,22.46,33.562z"/>
	<path d="M29.782,25.871c-0.527-0.248-1.127-0.508-1.819-0.797c-2.551-1.066-3.365-1.967-3.365-3.889c0-1.157,0.783-0.78,1.12-2.895
		c0.146-0.878,0.832-0.015,0.965-2.019c0-0.799-0.377-0.998-0.377-0.998s0.193-1.181,0.264-2.091c0.093-1.134-0.57-4.06-4.108-4.06
		c-3.534,0-4.199,2.926-4.104,4.06c0.07,0.91,0.264,2.091,0.264,2.091s-0.379,0.199-0.379,0.998c0.135,2.004,0.82,1.141,0.967,2.019
		c0.336,2.114,1.119,1.737,1.119,2.895c0,1.306-0.382,2.142-1.422,2.877c5.568,2.787,6.314,3.357,6.314,5.848v1.916
		C27.195,30.26,28.778,28.222,29.782,25.871z"/>
</g>
</svg>
