<?xml version="1.0" encoding="iso-8859-1"?>
<!-- Generator: Adobe Illustrator 16.0.0, SVG Export Plug-In . SVG Version: 6.00 Build 0)  -->
<!DOCTYPE svg PUBLIC "-//W3C//DTD SVG 1.1//EN" "http://www.w3.org/Graphics/SVG/1.1/DTD/svg11.dtd">
<svg version="1.1" id="Calque_1" xmlns="http://www.w3.org/2000/svg" xmlns:xlink="http://www.w3.org/1999/xlink" x="0px" y="0px"
	 width="73.372px" height="58.695px" viewBox="0 0 73.372 58.695" style="enable-background:new 0 0 73.372 58.695;"
	 xml:space="preserve">
<g>
	<path d="M36.686,22.011c-6.078,0-11.006,4.931-11.006,11.005c0,6.08,4.928,11.006,11.006,11.006
		c6.075,0,11.007-4.926,11.007-11.006C47.692,26.941,42.761,22.011,36.686,22.011z M66.033,11.004H57.23
		c-1.211,0-2.516-0.938-2.897-2.086l-2.275-6.83C51.673,0.939,50.371,0,49.158,0H24.213c-1.212,0-2.516,0.939-2.898,2.088
		l-2.275,6.83c-0.383,1.148-1.687,2.086-2.899,2.086H7.338C3.302,11.004,0,14.307,0,18.342v33.018c0,4.034,3.302,7.336,7.338,7.336
		h58.695c4.037,0,7.339-3.302,7.339-7.336V18.342C73.372,14.307,70.07,11.004,66.033,11.004z M36.686,51.359
		c-10.129,0-18.345-8.215-18.345-18.344s8.216-18.342,18.345-18.342s18.344,8.213,18.344,18.342S46.814,51.359,36.686,51.359z
		 M63.467,23.473c-1.418,0-2.569-1.148-2.569-2.566c0-1.42,1.151-2.568,2.569-2.568c1.419,0,2.566,1.148,2.566,2.568
		C66.033,22.324,64.886,23.473,63.467,23.473z"/>
</g>
</svg>
