<?xml version="1.0" encoding="iso-8859-1"?>
<!-- Generator: Adobe Illustrator 16.0.0, SVG Export Plug-In . SVG Version: 6.00 Build 0)  -->
<!DOCTYPE svg PUBLIC "-//W3C//DTD SVG 1.1//EN" "http://www.w3.org/Graphics/SVG/1.1/DTD/svg11.dtd">
<svg version="1.1" id="Calque_1" xmlns="http://www.w3.org/2000/svg" xmlns:xlink="http://www.w3.org/1999/xlink" x="0px" y="0px"
	 width="43.508px" height="48.947px" viewBox="0 0 43.508 48.947" style="enable-background:new 0 0 43.508 48.947;"
	 xml:space="preserve">
<g>
	<path d="M35.35,32.631c-1.868,0-3.585,0.635-4.961,1.693l-14.191-8.516c0.071-0.436,0.118-0.881,0.118-1.336
		s-0.047-0.898-0.118-1.336l14.191-8.514c1.376,1.059,3.093,1.693,4.961,1.693c4.505,0,8.158-3.654,8.158-8.158S39.854,0,35.35,0
		c-4.504,0-8.157,3.654-8.157,8.158c0,0.455,0.047,0.9,0.118,1.334l-14.192,8.516c-1.374-1.057-3.091-1.691-4.96-1.691
		C3.653,16.316,0,19.969,0,24.473c0,4.506,3.653,8.158,8.158,8.158c1.869,0,3.586-0.635,4.96-1.691l14.192,8.514
		c-0.071,0.438-0.118,0.881-0.118,1.336c0,4.504,3.653,8.158,8.157,8.158c4.505,0,8.158-3.654,8.158-8.158
		S39.854,32.631,35.35,32.631z"/>
</g>
</svg>
