<?xml version="1.0" encoding="iso-8859-1"?>
<!-- Generator: Adobe Illustrator 16.0.0, SVG Export Plug-In . SVG Version: 6.00 Build 0)  -->
<!DOCTYPE svg PUBLIC "-//W3C//DTD SVG 1.1//EN" "http://www.w3.org/Graphics/SVG/1.1/DTD/svg11.dtd">
<svg version="1.1" id="Calque_1" xmlns="http://www.w3.org/2000/svg" xmlns:xlink="http://www.w3.org/1999/xlink" x="0px" y="0px"
	 width="69.182px" height="49.416px" viewBox="0 0 69.182 49.416" style="enable-background:new 0 0 69.182 49.416;"
	 xml:space="preserve">
<g>
	<path d="M69.182,7.06V2.823C69.182,1.265,67.916,0,66.357,0H2.822C1.265,0,0,1.265,0,2.823V7.06h7.059v7.059H0v7.06h7.059v7.059H0
		v7.061h7.059v7.059H0v4.234c0,1.561,1.265,2.826,2.822,2.826h63.535c1.559,0,2.824-1.266,2.824-2.826v-4.234h-7.061v-7.059h7.061
		v-7.061h-7.061v-7.059h7.061v-7.06h-7.061V7.06H69.182z M26.825,35.297V14.118l17.647,10.59L26.825,35.297z"/>
</g>
</svg>
